<svg width="200" height="44" viewBox="0 0 200 44" fill="none" xmlns="http://www.w3.org/2000/svg">
<path d="M27.937 0.755492C26.8334 0.877016 25.8027 1.4004 25.0181 2.23765L17.647 10.0898C16.7384 11.0618 16.2282 12.3787 16.2282 13.7517C16.2282 15.1247 16.7384 16.4417 17.647 17.4136L19.0838 18.9538L20.7228 17.2042L19.289 15.6673C18.8144 15.1598 18.5478 14.472 18.5478 13.755C18.5478 13.0379 18.8144 12.3501 19.289 11.8427L26.6571 3.99045C27.133 3.48361 27.7779 3.19896 28.4501 3.19896C29.1224 3.19896 29.7672 3.48361 30.2431 3.99045L31.6648 5.5145L33.2314 7.18997L34.9972 9.07811L36.5638 10.7536L37.5961 11.8588C37.832 12.1099 38.0191 12.4082 38.1467 12.7366C38.2744 13.065 38.3401 13.4171 38.3401 13.7727C38.3401 14.1282 38.2744 14.4803 38.1467 14.8087C38.0191 15.1372 37.832 15.4355 37.5961 15.6866L33.4367 20.1169L30.8106 17.3202L30.6144 17.1204C29.6893 16.2392 28.4839 15.7684 27.2445 15.8044C26.0051 15.8403 24.8254 16.3802 23.9465 17.3137L22.3739 18.9892L20.7318 20.7356L19.3101 22.2532L19.2226 22.1533L17.656 20.4778L16.2343 18.957C15.3237 17.9862 14.0893 17.4409 12.8023 17.4409C11.5153 17.4409 10.2809 17.9862 9.37027 18.957L1.99912 26.7931C1.0904 27.7655 0.580078 29.083 0.580078 30.4566C0.580078 31.8301 1.0904 33.1476 1.99912 34.1201L3.44196 35.6602L5.00855 37.3325L6.76229 39.2303L8.32587 40.9058L9.34612 41.9948C10.2564 42.9664 11.4909 43.5122 12.7781 43.5122C14.0654 43.5122 15.2999 42.9664 16.2102 41.9948L20.8466 37.0554L23.9224 40.3483C24.8338 41.3176 26.0679 41.8618 27.3544 41.8618C28.6409 41.8618 29.875 41.3176 30.7864 40.3483L38.1545 32.5026C38.6059 32.0222 38.9639 31.4515 39.2083 30.8231C39.4526 30.1947 39.5783 29.521 39.5783 28.8407C39.5783 28.1604 39.4526 27.4867 39.2083 26.8583C38.9639 26.23 38.6059 25.6592 38.1545 25.1788L35.0727 21.8697L39.2322 17.4426C40.1424 16.471 40.6537 15.1532 40.6537 13.7791C40.6537 12.405 40.1424 11.0873 39.2322 10.1156L38.1968 9.00723L36.6453 7.33175L34.8795 5.44361L33.3159 3.76813L31.8912 2.24409C31.3786 1.69566 30.7572 1.27716 30.0728 1.01951C29.3883 0.761853 28.6584 0.671626 27.937 0.755492ZM25.6158 22.4433L24.0492 20.7678L24.0129 20.7291L25.5856 19.0537C25.705 18.9247 25.8365 18.8092 25.978 18.7089C26.4279 18.3937 26.9597 18.2389 27.4972 18.2667C28.0347 18.2945 28.5501 18.5035 28.9693 18.8636C29.0377 18.9237 29.1041 18.9881 29.1685 19.0569L31.7946 21.8633L30.222 23.5388C29.9865 23.7901 29.707 23.9895 29.3994 24.1256C29.0917 24.2616 28.762 24.3316 28.429 24.3316C28.096 24.3316 27.7663 24.2616 27.4586 24.1256C27.151 23.9895 26.8715 23.7901 26.636 23.5388L25.6158 22.4433ZM14.5711 40.2452C14.3357 40.4966 14.0561 40.696 13.7485 40.832C13.4409 40.968 13.1111 41.0381 12.7781 41.0381C12.4451 41.0381 12.1154 40.968 11.8078 40.832C11.5001 40.696 11.2206 40.4966 10.9852 40.2452L9.96491 39.1562L8.40133 37.4807L6.63552 35.5893L5.06892 33.9139L3.63212 32.3769C3.1573 31.8689 2.89064 31.1806 2.89064 30.463C2.89064 29.7454 3.1573 29.0571 3.63212 28.5491L11.0063 20.6937C11.4822 20.1868 12.127 19.9022 12.7993 19.9022C13.4715 19.9022 14.1163 20.1868 14.5922 20.6937L16.017 22.2177L17.5836 23.8932L17.6681 23.9834L16.5754 25.1498C15.9787 25.7869 15.5477 26.5789 15.3249 27.4479C15.1021 28.3168 15.0951 29.2327 15.3046 30.1054C15.4953 30.9164 15.8706 31.6646 16.3973 32.2835C16.4516 32.3512 16.509 32.4156 16.5663 32.4768L19.2105 35.3026L14.5711 40.2452ZM36.5246 26.9252C36.9994 27.4332 37.2661 28.1215 37.2661 28.8391C37.2661 29.5567 36.9994 30.245 36.5246 30.753L29.1474 38.602C28.6716 39.1078 28.0274 39.3919 27.3559 39.3919C26.6844 39.3919 26.0402 39.1078 25.5644 38.602L22.4886 35.309L23.5813 34.1458C24.49 33.1734 25.0003 31.8559 25.0003 30.4823C25.0003 29.1088 24.49 27.7913 23.5813 26.8189L22.555 25.6976L20.916 27.4472L21.9453 28.5652C22.1808 28.8165 22.3675 29.1149 22.495 29.4433C22.6224 29.7717 22.688 30.1237 22.688 30.4791C22.688 30.8346 22.6224 31.1866 22.495 31.5149C22.3675 31.8433 22.1808 32.1417 21.9453 32.393L20.8526 33.5562L18.2114 30.7304C18.151 30.666 18.0967 30.5983 18.0424 30.5307C17.7073 30.091 17.5096 29.5503 17.4771 28.9845C17.4446 28.4188 17.579 27.8564 17.8613 27.3763C17.9633 27.2049 18.0827 27.046 18.2174 26.9026L19.3071 25.7395L20.9492 23.9931L22.3709 22.4755L22.4101 22.5174L23.9677 24.1929L24.9849 25.2851C25.8959 26.2552 27.1302 26.7999 28.4169 26.7999C29.7037 26.7999 30.9379 26.2552 31.8489 25.2851L33.4246 23.6097L36.5246 26.9252Z" fill="#04A466" stroke="#04A466" stroke-width="0.312966" stroke-miterlimit="10"/>
<path d="M62.7007 11.8335V14.5845H56.3315V33.3345H53.1245V14.5845H46.8101V11.8335H62.7007Z" fill="#04A466" stroke="#04A466" stroke-width="0.312966"/>
<path d="M68.9429 17.1538H68.9458C70.5827 17.1539 71.8945 17.5643 72.895 18.3735L73.0913 18.5405C74.0467 19.3995 74.5728 20.5917 74.6577 22.1343L74.6694 22.4478V29.731C74.6695 31.183 74.8604 32.3545 75.2456 33.2476V33.3179H72.0308C71.861 32.8778 71.7434 32.4163 71.6851 31.9438L71.6411 31.5962L71.4116 31.8608C70.98 32.3572 70.467 32.7633 69.8999 33.0601L69.6528 33.1802C69.0704 33.4453 68.4485 33.5933 67.8179 33.6177L67.5474 33.6206H67.5444C66.0538 33.6205 64.8508 33.1678 63.9224 32.27H63.9233L63.9204 32.2671L63.7573 32.1089C63.4404 31.783 63.1754 31.4032 62.9731 30.9849L62.8774 30.7729C62.6662 30.2702 62.547 29.7288 62.5269 29.1792L62.5249 28.9438V28.9409C62.5249 27.3691 63.04 26.149 64.063 25.2622L64.2749 25.0894C65.3715 24.2426 66.9161 23.7853 68.9263 23.7368L69.3345 23.7329H71.5806V22.5132H71.5796C71.6086 21.8381 71.4238 21.174 71.0562 20.6274L70.8862 20.3999L70.8833 20.396L70.7905 20.2974C70.3129 19.8178 69.6268 19.5884 68.7583 19.5884V19.5894C68.0387 19.5579 67.3317 19.7889 66.7544 20.2437C66.5651 20.3913 66.4028 20.5731 66.2749 20.7798L66.1587 20.9946C66.0418 21.2433 65.9768 21.5137 65.9595 21.7896H62.8608C62.8932 21.0806 63.103 20.3963 63.4702 19.8091L63.6499 19.5454C64.1521 18.8648 64.7898 18.315 65.5142 17.936L65.8306 17.7847C66.6936 17.4029 67.6125 17.1904 68.5435 17.1567L68.9429 17.1538ZM69.5825 25.7104C68.3825 25.7104 67.4398 25.9196 66.77 26.3569L66.6421 26.4448C66.3549 26.6482 66.1166 26.9178 65.9419 27.231L65.8706 27.3677C65.7148 27.693 65.63 28.0505 65.6216 28.4136L65.6226 28.5698C65.6135 28.816 65.6419 29.0616 65.7065 29.2974L65.7847 29.5337C65.9053 29.8425 66.0892 30.1194 66.3228 30.3452L66.3218 30.3462L66.3276 30.3501C66.8456 30.8092 67.5081 31.0455 68.1841 31.0083L68.1831 31.0073C68.8749 31.0086 69.5551 30.8212 70.1577 30.4614L70.1567 30.4604C70.7481 30.1243 71.2339 29.6137 71.5562 28.9907L71.5737 28.9565V25.7104H69.5825Z" fill="#04A466" stroke="#04A466" stroke-width="0.312966"/>
<path d="M78.3623 21.8779C78.3588 21.301 78.4685 20.7306 78.6816 20.2031L78.7793 19.9795C79.0567 19.3917 79.46 18.8832 79.9561 18.4961L79.8604 18.373L79.957 18.4961L79.9619 18.4922C80.9648 17.6405 82.2269 17.1825 83.7588 17.127L84.0684 17.1211C85.7394 17.1211 87.0978 17.5357 88.1562 18.3525L88.3643 18.5205L88.3672 18.5234C88.8208 18.8933 89.1976 19.3595 89.4736 19.8926L89.5859 20.125C89.8476 20.7096 89.983 21.3487 89.9873 21.9961H86.8848C86.8759 21.7864 86.8441 21.5788 86.7842 21.3789L86.6963 21.1328C86.5952 20.8915 86.4572 20.6695 86.2881 20.4766L86.1084 20.2939L86.1074 20.293L85.8867 20.1123C85.3593 19.7228 84.7233 19.5258 84.0752 19.5566C83.4751 19.5286 82.8821 19.6823 82.3643 19.9961L82.1465 20.1406V20.1416C81.962 20.2766 81.804 20.4464 81.6797 20.6416L81.5664 20.8447C81.4328 21.1239 81.3667 21.4337 81.373 21.7461C81.3685 21.9585 81.403 22.1697 81.4746 22.3672L81.5586 22.5596C81.6867 22.8093 81.8753 23.0205 82.1055 23.1699V23.1689C82.5734 23.4967 83.4884 23.8136 84.8203 24.1279V24.1289L84.8242 24.1299C85.9012 24.3496 86.9464 24.7215 87.9316 25.2363V25.2354C88.506 25.5385 89.0098 25.9749 89.4062 26.5117L89.5693 26.748C89.8886 27.3046 90.0686 27.9386 90.0947 28.5889L90.0967 28.8691V28.876C90.1067 29.4623 89.9977 30.0429 89.7793 30.5781L89.6787 30.8047C89.4292 31.3261 89.0787 31.7826 88.6514 32.1436L88.4629 32.292L88.459 32.2959C87.4311 33.1158 86.0971 33.5573 84.4453 33.6094L84.1104 33.6143H84.1074C83.1291 33.6334 82.1573 33.4533 81.2441 33.084L80.8564 32.9141L80.5303 32.7471C79.8905 32.3899 79.3247 31.8972 78.8672 31.2988L78.6475 30.9912C78.166 30.2685 77.8968 29.4102 77.8672 28.5244H80.874C80.8962 28.8743 80.9824 29.2174 81.127 29.5342C81.272 29.852 81.4737 30.1368 81.7207 30.373L81.8291 30.4717L81.8359 30.4775C82.5138 30.9924 83.3363 31.2494 84.1699 31.2051L84.1689 31.2041C85.0761 31.2031 85.7932 31.0184 86.2988 30.627L86.2998 30.6279C86.54 30.4547 86.7345 30.2205 86.8672 29.9482C86.9986 29.6785 87.0651 29.3791 87.0615 29.0762C87.0715 28.7941 87.0192 28.5133 86.9092 28.2568L86.8594 28.1484C86.733 27.8992 86.5528 27.6849 86.334 27.5225L86.2383 27.4561L86.2314 27.4521L85.9307 27.2891C85.2236 26.9254 84.4705 26.6711 83.6943 26.5352C82.8297 26.3566 81.985 26.0828 81.1738 25.7178L80.8281 25.5557C79.9964 25.1259 79.3817 24.6047 78.9746 23.9961C78.5679 23.3879 78.3624 22.684 78.3623 21.8789V21.8779Z" fill="#04A466" stroke="#04A466" stroke-width="0.312966"/>
<path d="M96.4871 10.6255V24.2085L96.7683 23.8315L97.8337 22.4077L97.8328 22.4067L101.974 17.4243H105.663L100.239 23.9341L100.164 24.0229L100.228 24.1206L106.312 33.3247H102.745L98.2869 26.437L98.1765 26.2661L98.0398 26.4165L96.53 28.0786L96.49 28.1235V33.3149H93.3884V10.6255H96.4871Z" fill="#04A466" stroke="#04A466" stroke-width="0.312966"/>
<path d="M111.944 11.8208V30.5991H121.217V33.312H108.707V11.8208H111.944Z" fill="#04A466" stroke="#04A466" stroke-width="0.312966"/>
<path d="M127.224 17.4175V33.3091H124.125V17.4175H127.224ZM125.684 11.2632C126.164 11.2632 126.629 11.4426 127 11.772C127.112 11.8975 127.206 12.04 127.28 12.1948L127.347 12.3569C127.407 12.5223 127.444 12.6961 127.456 12.8726L127.459 13.0493V13.0581C127.465 13.232 127.446 13.4058 127.403 13.5728L127.352 13.7368C127.274 13.9509 127.157 14.1452 127.008 14.3091C126.635 14.6328 126.171 14.8091 125.693 14.8091C125.214 14.809 124.748 14.6317 124.375 14.3062C124.264 14.1843 124.169 14.0461 124.096 13.895L124.029 13.7368C123.969 13.5749 123.932 13.4043 123.919 13.231L123.915 13.0571V13.0493C123.909 12.8721 123.929 12.6951 123.972 12.5249L124.024 12.3569C124.102 12.139 124.219 11.9397 124.368 11.771C124.739 11.4419 125.205 11.2632 125.684 11.2632Z" fill="#04A466" stroke="#04A466" stroke-width="0.312966"/>
<path d="M138.772 17.1147H138.778C140.326 17.1148 141.47 17.5866 142.237 18.5083C142.962 19.3781 143.37 20.6708 143.441 22.4077L143.451 22.7603V33.3052H140.356V22.9644C140.356 21.9211 140.145 21.1163 139.694 20.5796C139.236 20.0341 138.502 19.7805 137.534 19.7827C136.865 19.7611 136.205 19.9467 135.635 20.3169C135.063 20.6881 134.606 21.2283 134.318 21.8696L134.305 21.8999V33.3052H131.21V17.4175H134.114L134.206 19.1421L134.229 19.5728L134.487 19.2271C135 18.5424 135.655 17.9957 136.398 17.6294C137.049 17.3089 137.753 17.1338 138.467 17.1138L138.772 17.1147Z" fill="#04A466" stroke="#04A466" stroke-width="0.312966"/>
<path d="M150.343 10.6157V24.1938L150.624 23.8188L151.689 22.3979L151.688 22.397L155.827 17.4116H159.516L154.091 23.9214L154.017 24.0103L154.081 24.1079L160.165 33.3149H156.601L152.143 26.4272L152.032 26.2563L151.896 26.4067L150.386 28.0688L150.346 28.1138V33.3022H147.244V10.6157H150.343Z" fill="#04A466" stroke="#04A466" stroke-width="0.312966"/>
<path d="M161.368 25.3237C161.347 23.9396 161.606 22.5684 162.128 21.3042L162.235 21.0532V21.0522C162.762 19.8583 163.598 18.8512 164.641 18.1479L164.64 18.147C165.607 17.4983 166.72 17.1425 167.857 17.1128L168.085 17.1118H168.087C169.987 17.1118 171.468 17.7159 172.548 18.9155L172.759 19.1636C173.857 20.5329 174.415 22.4889 174.411 25.0522V26.3618H164.487L164.493 26.5239C164.533 27.6688 164.94 28.7633 165.644 29.6265L165.788 29.7964L165.791 29.7993C166.122 30.1496 166.509 30.4341 166.934 30.6392L167.118 30.7222C167.615 30.9302 168.147 31.0276 168.682 31.0083L168.681 31.0073C169.35 31.02 170.013 30.8832 170.627 30.606L170.889 30.478C171.522 30.1428 172.073 29.6609 172.509 29.0718L174.128 30.7222C173.617 31.5047 172.952 32.1545 172.178 32.6226L171.825 32.8198C170.912 33.2855 169.922 33.5471 168.915 33.5903L168.482 33.5952H168.479C166.492 33.5952 164.867 32.9705 163.593 31.7251L163.343 31.4673C162.033 30.0502 161.37 28.1581 161.368 25.7739V25.3237ZM171.355 23.564C171.287 22.4051 171.012 21.4889 170.516 20.8345L170.413 20.7075L170.41 20.7046L170.295 20.5825C170.058 20.3453 169.786 20.1502 169.489 20.0054L169.34 19.937C168.955 19.775 168.542 19.7001 168.128 19.7153L168.078 19.7144C167.683 19.6992 167.289 19.7672 166.919 19.9126L166.763 19.979C166.4 20.1464 166.073 20.3875 165.799 20.687L165.685 20.8188L165.681 20.8237C165.034 21.6848 164.641 22.7304 164.551 23.8276L164.537 23.9976H171.355V23.5728H171.356L171.355 23.564Z" fill="#04A466" stroke="#04A466" stroke-width="0.312966"/>
<path d="M183.973 17.1084C184.327 17.0956 184.681 17.1502 185.018 17.2695L185.001 20.3906C184.71 20.3462 184.417 20.3168 184.123 20.3047L183.769 20.2979C182.968 20.2979 182.285 20.4639 181.729 20.8047C181.171 21.1462 180.753 21.6568 180.47 22.3271L180.457 22.3564V33.3115H177.363V17.4082H180.311L180.389 19.0703L180.413 19.5967L180.68 19.1416C181.431 17.861 182.439 17.1944 183.71 17.1162L183.968 17.1084H183.973Z" fill="#04A466" stroke="#04A466" stroke-width="0.312966"/>
<path d="M193.002 17.1211C194.674 17.1211 196.033 17.5354 197.091 18.3525L197.298 18.5205L197.301 18.5234C197.752 18.8915 198.127 19.355 198.402 19.8848L198.514 20.1152C198.775 20.6957 198.912 21.3304 198.918 21.9736H195.803C195.793 21.7639 195.762 21.5562 195.702 21.3564L195.613 21.1113C195.512 20.8703 195.375 20.6484 195.207 20.4551L195.028 20.2715L195.027 20.2705L194.806 20.0898C194.279 19.7011 193.644 19.5045 192.997 19.5342C192.398 19.4984 191.804 19.6442 191.284 19.9502L191.065 20.0908L191.062 20.0928C190.878 20.2285 190.721 20.3993 190.597 20.5947L190.485 20.7979C190.352 21.077 190.286 21.3862 190.292 21.6982C190.288 21.9105 190.323 22.1211 190.394 22.3184L190.478 22.5107C190.605 22.76 190.792 22.9709 191.021 23.1211V23.1201C191.432 23.4068 192.183 23.6862 193.255 23.9619L193.736 24.0801L193.741 24.0811C194.684 24.2738 195.602 24.5832 196.478 25.002L196.851 25.1875C197.506 25.5395 198.067 26.0658 198.48 26.7158H198.481C198.851 27.3537 199.038 28.0952 199.016 28.8467L199.172 28.8516L199.015 28.8467L199.016 28.8535C199.028 29.5236 198.883 30.1862 198.598 30.7822C198.349 31.3038 197.997 31.76 197.57 32.1211L197.382 32.2695L197.377 32.2734C196.351 33.0952 195.019 33.5378 193.367 33.5898L193.033 33.5957H193.03C192.051 33.6131 191.08 33.4312 190.167 33.0615L189.779 32.8916C189.007 32.5281 188.328 31.9741 187.797 31.2764L187.579 30.9688V30.9678C187.095 30.246 186.825 29.3881 186.795 28.502H189.802C189.824 28.8518 189.911 29.195 190.055 29.5117C190.2 29.8295 190.402 30.1144 190.649 30.3506L190.757 30.4492L190.764 30.4551C191.442 30.9695 192.265 31.2264 193.098 31.1826L193.097 31.1816C194.011 31.1807 194.732 30.9958 195.236 30.6016L195.235 30.6006C195.411 30.4698 195.563 30.3069 195.682 30.1191L195.792 29.9219C195.92 29.6527 195.983 29.3546 195.978 29.0537C195.99 28.7313 195.92 28.4108 195.776 28.126C195.632 27.842 195.418 27.6032 195.157 27.4355H195.158C194.701 27.1256 193.99 26.8532 193.038 26.6123L192.615 26.5107L192.61 26.5098L192.241 26.4307C191.505 26.2613 190.785 26.022 190.089 25.7148L189.744 25.5557C188.912 25.1249 188.298 24.6027 187.891 23.9941C187.484 23.3859 187.279 22.6829 187.279 21.8789V21.8779C187.276 21.301 187.385 20.7306 187.598 20.2031L187.696 19.9805C187.938 19.4662 188.278 19.0125 188.691 18.6475L188.873 18.4961L188.877 18.4922C189.882 17.6405 191.15 17.1826 192.691 17.127L193.002 17.1211Z" fill="#04A466" stroke="#04A466" stroke-width="0.312966"/>
</svg>
