<svg width="42" height="44" viewBox="0 0 42 44" fill="none" xmlns="http://www.w3.org/2000/svg">
<path d="M28.3569 1.03039C27.2533 1.15192 26.2226 1.6753 25.438 2.51255L18.0669 10.3647C17.1583 11.3367 16.6481 12.6536 16.6481 14.0266C16.6481 15.3996 17.1583 16.7166 18.0669 17.6885L19.5037 19.2287L21.1427 17.4791L19.7089 15.9422C19.2343 15.4347 18.9677 14.7469 18.9677 14.0299C18.9677 13.3128 19.2343 12.625 19.7089 12.1176L27.0771 4.26536C27.553 3.75851 28.1978 3.47386 28.87 3.47386C29.5423 3.47386 30.1871 3.75851 30.663 4.26536L32.0847 5.7894L33.6513 7.46488L35.4171 9.35301L36.9837 11.0285L38.0161 12.1337C38.2519 12.3848 38.439 12.6831 38.5667 13.0115C38.6943 13.3399 38.76 13.692 38.76 14.0476C38.76 14.4031 38.6943 14.7552 38.5667 15.0836C38.439 15.4121 38.2519 15.7104 38.0161 15.9615L33.8566 20.3918L31.2305 17.5951L31.0343 17.3953C30.1093 16.5141 28.9038 16.0433 27.6644 16.0793C26.425 16.1152 25.2453 16.6551 24.3665 17.5886L22.7938 19.2641L21.1518 21.0105L19.7301 22.5281L19.6425 22.4282L18.0759 20.7527L16.6542 19.2319C15.7436 18.2611 14.5092 17.7158 13.2222 17.7158C11.9352 17.7158 10.7008 18.2611 9.79019 19.2319L2.41904 27.068C1.51032 28.0404 1 29.3579 1 30.7315C1 32.105 1.51032 33.4225 2.41904 34.395L3.86188 35.9351L5.42848 37.6074L7.18222 39.5052L8.74579 41.1807L9.76604 42.2697C10.6763 43.2413 11.9108 43.7871 13.1981 43.7871C14.4853 43.7871 15.7198 43.2413 16.6301 42.2697L21.2665 37.3303L24.3423 40.6232C25.2537 41.5925 26.4878 42.1367 27.7743 42.1367C29.0608 42.1367 30.2949 41.5925 31.2063 40.6232L38.5745 32.7775C39.0258 32.2971 39.3839 31.7264 39.6282 31.098C39.8725 30.4696 39.9983 29.7959 39.9983 29.1156C39.9983 28.4353 39.8725 27.7616 39.6282 27.1332C39.3839 26.5049 39.0258 25.9341 38.5745 25.4537L35.4926 22.1446L39.6521 17.7175C40.5623 16.7459 41.0736 15.4281 41.0736 14.054C41.0736 12.68 40.5623 11.3622 39.6521 10.3905L38.6167 9.28213L37.0652 7.60665L35.2994 5.71851L33.7358 4.04303L32.3111 2.51899C31.7985 1.97056 31.1771 1.55206 30.4927 1.29441C29.8083 1.03676 29.0784 0.946528 28.3569 1.03039ZM26.0357 22.7182L24.4691 21.0427L24.4329 21.004L26.0055 19.3286C26.1249 19.1996 26.2564 19.0841 26.3979 18.9838C26.8478 18.6686 27.3797 18.5138 27.9171 18.5416C28.4546 18.5694 28.97 18.7784 29.3892 19.1385C29.4576 19.1986 29.524 19.263 29.5884 19.3318L32.2145 22.1382L30.6419 23.8137C30.4064 24.065 30.1269 24.2644 29.8193 24.4005C29.5116 24.5365 29.1819 24.6065 28.8489 24.6065C28.5159 24.6065 28.1862 24.5365 27.8785 24.4005C27.5709 24.2644 27.2914 24.065 27.0559 23.8137L26.0357 22.7182ZM14.991 40.5201C14.7556 40.7715 14.4761 40.9709 14.1684 41.1069C13.8608 41.2429 13.5311 41.313 13.1981 41.313C12.8651 41.313 12.5353 41.2429 12.2277 41.1069C11.9201 40.9709 11.6405 40.7715 11.4051 40.5201L10.3848 39.4311L8.82125 37.7556L7.05544 35.8642L5.48885 34.1888L4.05205 32.6518C3.57722 32.1438 3.31056 31.4555 3.31056 30.7379C3.31056 30.0203 3.57722 29.332 4.05205 28.824L11.4262 20.9686C11.9021 20.4617 12.5469 20.1771 13.2192 20.1771C13.8915 20.1771 14.5363 20.4617 15.0122 20.9686L16.4369 22.4926L18.0035 24.1681L18.088 24.2583L16.9953 25.4247C16.3986 26.0618 15.9676 26.8538 15.7448 27.7228C15.522 28.5917 15.515 29.5076 15.7245 30.3803C15.9152 31.1913 16.2906 31.9395 16.8172 32.5584C16.8716 32.6261 16.9289 32.6905 16.9863 32.7517L19.6305 35.5775L14.991 40.5201ZM36.9445 27.2001C37.4193 27.7081 37.686 28.3964 37.686 29.114C37.686 29.8316 37.4193 30.5199 36.9445 31.0279L29.5673 38.8769C29.0915 39.3827 28.4474 39.6668 27.7758 39.6668C27.1043 39.6668 26.4601 39.3827 25.9844 38.8769L22.9085 35.5839L24.0012 34.4208C24.9099 33.4483 25.4203 32.1308 25.4203 30.7573C25.4203 29.3837 24.9099 28.0662 24.0012 27.0938L22.9749 25.9725L21.3359 27.7221L22.3652 28.8401C22.6007 29.0914 22.7875 29.3898 22.9149 29.7182C23.0423 30.0466 23.1079 30.3986 23.1079 30.754C23.1079 31.1095 23.0423 31.4615 22.9149 31.7898C22.7875 32.1182 22.6007 32.4166 22.3652 32.6679L21.2725 33.8311L18.6313 31.0054C18.571 30.9409 18.5166 30.8732 18.4623 30.8056C18.1272 30.3659 17.9295 29.8252 17.897 29.2594C17.8645 28.6937 17.9989 28.1313 18.2812 27.6512C18.3832 27.4798 18.5027 27.3209 18.6374 27.1775L19.727 26.0144L21.3691 24.268L22.7908 22.7504L22.83 22.7923L24.3876 24.4678L25.4048 25.56C26.3158 26.5301 27.5501 27.0748 28.8368 27.0748C30.1236 27.0748 31.3578 26.5301 32.2689 25.56L33.8445 23.8846L36.9445 27.2001Z" fill="#04A466" stroke="#04A466" stroke-width="0.312966" stroke-miterlimit="10"/>
</svg>
