<svg width="200" height="45" viewBox="0 0 200 45" fill="none" xmlns="http://www.w3.org/2000/svg">
<path d="M28.3905 1.13684C27.2869 1.25836 26.2562 1.78174 25.4716 2.61899L18.1004 10.4712C17.1919 11.4431 16.6817 12.7601 16.6817 14.1331C16.6817 15.5061 17.1919 16.823 18.1004 17.795L19.5372 19.3351L21.1763 17.5855L19.7425 16.0486C19.2679 15.5411 19.0013 14.8534 19.0013 14.1363C19.0013 13.4192 19.2679 12.7314 19.7425 12.224L27.1106 4.3718C27.5865 3.86496 28.2313 3.58031 28.9036 3.58031C29.5759 3.58031 30.2207 3.86496 30.6966 4.3718L32.1183 5.89584L33.6849 7.57132L35.4507 9.45946L37.0173 11.1349L38.0496 12.2401C38.2855 12.4912 38.4726 12.7895 38.6002 13.118C38.7279 13.4464 38.7936 13.7984 38.7936 14.154C38.7936 14.5096 38.7279 14.8617 38.6002 15.1901C38.4726 15.5185 38.2855 15.8168 38.0496 16.0679L33.8901 20.4983L31.2641 17.7015L31.0679 17.5018C30.1428 16.6205 28.9374 16.1498 27.698 16.1857C26.4586 16.2216 25.2789 16.7616 24.4 17.6951L22.8274 19.3706L21.1853 21.1169L19.7636 22.6345L19.6761 22.5346L18.1095 20.8592L16.6878 19.3383C15.7772 18.3675 14.5428 17.8223 13.2558 17.8223C11.9688 17.8223 10.7344 18.3675 9.82376 19.3383L2.45261 27.1744C1.54389 28.1469 1.03357 29.4644 1.03357 30.8379C1.03357 32.2115 1.54389 33.5289 2.45261 34.5014L3.89545 36.0416L5.46204 37.7138L7.21579 39.6116L8.77936 41.2871L9.79961 42.3762C10.7099 43.3478 11.9444 43.8936 13.2316 43.8936C14.5189 43.8936 15.7534 43.3478 16.6636 42.3762L21.3 37.4367L24.3759 40.7297C25.2873 41.6989 26.5214 42.2431 27.8079 42.2431C29.0944 42.2431 30.3285 41.6989 31.2399 40.7297L38.608 32.8839C39.0594 32.4035 39.4174 31.8328 39.6617 31.2044C39.9061 30.5761 40.0318 29.9024 40.0318 29.222C40.0318 28.5417 39.9061 27.868 39.6617 27.2397C39.4174 26.6113 39.0594 26.0406 38.608 25.5602L35.5262 22.2511L39.6856 17.824C40.5958 16.8523 41.1072 15.5345 41.1072 14.1605C41.1072 12.7864 40.5958 11.4686 39.6856 10.497L38.6503 9.38857L37.0988 7.71309L35.333 5.82496L33.7694 4.14948L32.3447 2.62544C31.8321 2.07701 31.2107 1.65851 30.5263 1.40086C29.8418 1.1432 29.1119 1.05297 28.3905 1.13684ZM26.0692 22.8246L24.5027 21.1491L24.4664 21.1105L26.0391 19.435C26.1585 19.306 26.2899 19.1905 26.4315 19.0902C26.8813 18.7751 27.4132 18.6203 27.9507 18.6481C28.4882 18.6759 29.0036 18.8848 29.4228 19.2449C29.4912 19.305 29.5576 19.3695 29.622 19.4382L32.2481 22.2446L30.6755 23.9201C30.44 24.1715 30.1605 24.3709 29.8528 24.5069C29.5452 24.6429 29.2155 24.713 28.8825 24.713C28.5495 24.713 28.2198 24.6429 27.9121 24.5069C27.6045 24.3709 27.3249 24.1715 27.0895 23.9201L26.0692 22.8246ZM15.0246 40.6266C14.7892 40.8779 14.5096 41.0773 14.202 41.2134C13.8944 41.3494 13.5646 41.4194 13.2316 41.4194C12.8986 41.4194 12.5689 41.3494 12.2613 41.2134C11.9536 41.0773 11.6741 40.8779 11.4386 40.6266L10.4184 39.5375L8.85482 37.862L7.08901 35.9707L5.52241 34.2952L4.08562 32.7583C3.61079 32.2503 3.34413 31.562 3.34413 30.8444C3.34413 30.1268 3.61079 29.4385 4.08562 28.9305L11.4598 21.075C11.9357 20.5682 12.5805 20.2835 13.2528 20.2835C13.925 20.2835 14.5698 20.5682 15.0457 21.075L16.4705 22.5991L18.0371 24.2746L18.1216 24.3648L17.0289 25.5312C16.4322 26.1683 16.0012 26.9603 15.7784 27.8292C15.5556 28.6981 15.5486 29.614 15.7581 30.4867C15.9488 31.2977 16.3241 32.0459 16.8508 32.6648C16.9051 32.7325 16.9625 32.7969 17.0198 32.8582L19.664 35.6839L15.0246 40.6266ZM36.9781 27.3065C37.4529 27.8145 37.7195 28.5028 37.7195 29.2204C37.7195 29.938 37.4529 30.6264 36.9781 31.1344L29.6009 38.9833C29.1251 39.4892 28.4809 39.7732 27.8094 39.7732C27.1379 39.7732 26.4937 39.4892 26.0179 38.9833L22.9421 35.6904L24.0348 34.5272C24.9435 33.5547 25.4538 32.2372 25.4538 30.8637C25.4538 29.4902 24.9435 28.1727 24.0348 27.2002L23.0085 26.0789L21.3695 27.8285L22.3988 28.9466C22.6342 29.1979 22.821 29.4963 22.9485 29.8247C23.0759 30.1531 23.1415 30.505 23.1415 30.8605C23.1415 31.2159 23.0759 31.5679 22.9485 31.8963C22.821 32.2247 22.6342 32.5231 22.3988 32.7744L21.3061 33.9376L18.6649 31.1118C18.6045 31.0474 18.5502 30.9797 18.4959 30.912C18.1608 30.4723 17.9631 29.9316 17.9306 29.3659C17.8981 28.8001 18.0325 28.2377 18.3148 27.7576C18.4168 27.5862 18.5362 27.4274 18.6709 27.284L19.7606 26.1208L21.4027 24.3744L22.8244 22.8568L22.8636 22.8987L24.4212 24.5742L25.4384 25.6665C26.3494 26.6365 27.5836 27.1812 28.8704 27.1812C30.1572 27.1812 31.3914 26.6365 32.3024 25.6665L33.8781 23.991L36.9781 27.3065Z" fill="#CED7D3" stroke="#CED7D3" stroke-width="0.312966" stroke-miterlimit="10"/>
<path d="M53.2417 14.9673H47.0835V12.2161H62.9738V14.9673H56.7612H56.6047V15.1238V33.7165H53.3982V15.1238V14.9673H53.2417Z" fill="#CED7D3" stroke="#CED7D3" stroke-width="0.312966"/>
<path d="M66.432 21.3765C66.315 21.6253 66.2462 21.8958 66.2289 22.1719H63.131C63.1683 21.3541 63.445 20.5689 63.9228 19.928L63.9233 19.9274C64.4972 19.1495 65.2482 18.5436 66.1032 18.1668L66.1034 18.1667C67.0896 17.7304 68.1489 17.5157 69.2156 17.5357L69.2156 17.5357H69.2185C70.9647 17.5357 72.3408 18.0032 73.364 18.923C74.383 19.8391 74.9142 21.1339 74.9421 22.8291V30.1129C74.9421 31.5674 75.1321 32.7413 75.5186 33.635V33.7004H72.3011C72.1315 33.2606 72.016 32.7988 71.9577 32.3266L71.9146 31.9782L71.6843 32.2431C71.1909 32.8105 70.5917 33.26 69.9262 33.563C69.2607 33.866 68.5433 34.0159 67.8207 34.0033L67.8207 34.0033H67.818C66.3271 34.0033 65.1245 33.55 64.1959 32.6521L64.1959 32.6521L64.1931 32.6495C63.7479 32.2394 63.3917 31.7294 63.1503 31.1549C62.9089 30.5804 62.7885 29.956 62.7977 29.3258H62.7977V29.3235C62.7977 27.6465 63.3842 26.3699 64.548 25.4713C65.7177 24.5681 67.3971 24.1088 69.6075 24.1152H69.6079H71.6967H71.8532V23.9587V22.8989C71.8872 22.1258 71.6395 21.3672 71.1597 20.7824L71.1597 20.7823L71.1564 20.7785C70.6773 20.2321 69.9596 19.9718 69.035 19.9712C68.314 19.9388 67.6055 20.1707 67.0272 20.6264C66.775 20.8231 66.5712 21.0805 66.432 21.3765ZM71.8297 29.3728L71.8472 29.339V29.3009V26.2496V26.0931H71.6907H69.8554C68.5764 26.0931 67.5898 26.3301 66.9143 26.8284C66.5867 27.0608 66.3216 27.3784 66.1437 27.7499C65.9664 28.12 65.8812 28.5318 65.8956 28.9461C65.8825 29.2778 65.9377 29.6087 66.0576 29.9157C66.1783 30.2246 66.3617 30.5021 66.5954 30.728L66.5953 30.7281L66.6003 30.7326C67.1172 31.1908 67.7783 31.4266 68.4528 31.3906C69.1453 31.3925 69.8259 31.204 70.4292 30.8442C71.0211 30.508 71.5072 29.9963 71.8297 29.3728Z" fill="#CED7D3" stroke="#CED7D3" stroke-width="0.312966"/>
<path d="M87.1611 22.3782C87.1485 22.0809 87.0836 21.788 86.9692 21.515C86.8343 21.1931 86.6338 20.9064 86.3815 20.676L86.3806 20.6752C85.8133 20.1654 85.0848 19.9015 84.3406 19.9389C83.6573 19.9087 82.9838 20.1141 82.42 20.5231L82.4195 20.5235C82.1734 20.7036 81.9744 20.9457 81.8397 21.2271C81.7055 21.5074 81.6391 21.8185 81.6461 22.1322C81.6406 22.4144 81.7046 22.6937 81.8321 22.9423C81.9597 23.1911 82.1469 23.4011 82.3759 23.5504C82.8432 23.8787 83.759 24.1959 85.093 24.5107L85.093 24.5108L85.0977 24.5117C86.1745 24.7314 87.2193 25.1035 88.2045 25.6182C88.8598 25.9641 89.4229 26.4831 89.84 27.1272C90.2063 27.7643 90.3907 28.5027 90.3696 29.2515L90.3694 29.2515L90.3695 29.2586C90.381 29.9288 90.2375 30.5912 89.9522 31.1872C89.667 31.7831 89.2491 32.2938 88.7363 32.6746L88.7362 32.6745L88.732 32.6779C87.6355 33.5526 86.1908 33.997 84.3834 33.997L84.3803 33.9971C83.2624 34.019 82.1531 33.7801 81.1299 33.2967L81.1295 33.2965C80.2449 32.8814 79.4811 32.2172 78.9205 31.3733L78.9204 31.3731C78.4389 30.6503 78.1669 29.7925 78.1373 28.9066H81.1477C81.1699 29.2565 81.2552 29.5994 81.3998 29.9162C81.5656 30.2796 81.8053 30.6 82.1024 30.8539L82.1022 30.854L82.1094 30.8595C82.7861 31.3735 83.6066 31.6305 84.4388 31.5873C85.349 31.5868 86.0688 31.4015 86.5751 31.0083C86.8142 30.8352 87.0082 30.6021 87.1405 30.3308C87.2726 30.0597 87.3393 29.7585 87.335 29.454C87.3457 29.1331 87.2758 28.8144 87.1321 28.531C86.9877 28.2463 86.7737 28.0068 86.5114 27.8386L86.5115 27.8384L86.5043 27.8344C85.7112 27.3828 84.8537 27.073 83.966 26.9177C82.9789 26.7136 82.0179 26.3852 81.1031 25.9391C80.2704 25.5092 79.6551 24.9877 79.2477 24.3785C78.8408 23.7702 78.6357 23.0662 78.6357 22.2608L78.6357 22.2599C78.6317 21.6006 78.7746 20.9501 79.052 20.362C79.3295 19.774 79.7334 19.2658 80.2296 18.8786L80.2297 18.8787L80.2346 18.8745C81.3043 17.966 82.669 17.5058 84.3412 17.5037C86.1238 17.5037 87.5509 17.9746 88.6374 18.9032L88.6374 18.9032L88.6402 18.9055C89.1587 19.3282 89.5766 19.8771 89.8587 20.5075C90.1203 21.0921 90.258 21.7309 90.2623 22.3782H87.1611Z" fill="#CED7D3" stroke="#CED7D3" stroke-width="0.312966"/>
<path d="M98.5599 26.8189L98.4494 26.6481L98.3127 26.7988L96.8034 28.4613L96.7628 28.5061V28.5665V33.6975H93.6619V11.008H96.7598V24.1201V24.5904L97.0416 24.2138L98.1047 22.7928L102.248 17.8066H105.936L100.512 24.3163L100.437 24.4057L100.501 24.5028L106.586 33.7071H103.017L98.5599 26.8189Z" fill="#CED7D3" stroke="#CED7D3" stroke-width="0.312966"/>
<path d="M112.217 30.8251V30.9816H112.374H121.49V33.6942H108.981V12.2034H112.217V30.8251Z" fill="#CED7D3" stroke="#CED7D3" stroke-width="0.312966"/>
<path d="M124.188 13.439L124.188 13.4391L124.188 13.4312C124.181 13.1949 124.218 12.9597 124.297 12.7392C124.375 12.5216 124.492 12.3231 124.64 12.1545C125.011 11.8249 125.477 11.6457 125.957 11.6457C126.437 11.6457 126.903 11.825 127.274 12.1548C127.424 12.3229 127.542 12.5213 127.621 12.7391C127.7 12.9595 127.739 13.195 127.732 13.4317L127.732 13.4317L127.732 13.4408C127.74 13.6727 127.703 13.9036 127.625 14.1196C127.548 14.3327 127.432 14.5266 127.284 14.69C126.911 15.015 126.445 15.1913 125.966 15.1913C125.487 15.1913 125.021 15.0149 124.648 14.6898C124.499 14.5264 124.381 14.3326 124.302 14.1192C124.222 13.9032 124.183 13.6719 124.188 13.439ZM127.497 33.6911H124.399V17.8003H127.497V33.6911Z" fill="#CED7D3" stroke="#CED7D3" stroke-width="0.312966"/>
<path d="M134.578 22.3157V33.6878H131.484V17.8002H134.387L134.479 19.524L134.502 19.9547L134.761 19.6095C135.273 18.9248 135.928 18.3781 136.672 18.0118C137.415 17.6455 138.228 17.4695 139.046 17.4972L139.046 17.4973H139.051C140.6 17.4973 141.743 17.9689 142.511 18.8909C143.283 19.8184 143.696 21.2265 143.724 23.1417V33.6878H140.63V23.3468C140.63 22.3035 140.419 21.4985 139.968 20.9617C139.511 20.4167 138.777 20.163 137.81 20.1647C137.14 20.1425 136.479 20.3287 135.908 20.6994C135.336 21.0706 134.88 21.6103 134.592 22.2517L134.578 22.2822V22.3157Z" fill="#CED7D3" stroke="#CED7D3" stroke-width="0.312966"/>
<path d="M152.416 26.8092L152.305 26.6384L152.168 26.789L150.659 28.4516L150.619 28.4963V28.5568V33.6845H147.518V10.9983H150.615V24.1071V24.5766L150.897 24.201L151.96 22.7831L156.101 17.7936H159.789L154.364 24.3033L154.29 24.3927L154.354 24.4898L160.439 33.6974H156.873L152.416 26.8092Z" fill="#CED7D3" stroke="#CED7D3" stroke-width="0.312966"/>
<path d="M168.756 33.9776L168.756 33.9776H168.753C166.633 33.9776 164.925 33.2666 163.616 31.8497C162.306 30.4326 161.643 28.5403 161.641 26.1561L161.641 25.7083H161.641L161.641 25.7059C161.618 24.2295 161.915 22.7678 162.509 21.4351L162.509 21.4346C163.036 20.2408 163.871 19.2337 164.913 18.5305C165.946 17.8384 167.142 17.4789 168.359 17.4938V17.4939H168.361C170.388 17.4939 171.937 18.1815 173.032 19.5458C174.131 20.9151 174.689 22.8707 174.685 25.4342V25.4344V26.744H164.923H164.76L164.766 26.906C164.809 28.1274 165.269 29.2915 166.062 30.1785L166.062 30.1785L166.065 30.1817C166.443 30.5819 166.894 30.896 167.391 31.1041C167.887 31.3117 168.418 31.4093 168.95 31.3907C169.717 31.4059 170.476 31.2238 171.162 30.8606C171.794 30.5255 172.348 30.0456 172.784 29.4568L174.404 31.1067C173.816 32.0056 173.022 32.7273 172.098 33.2022C171.055 33.7344 169.911 33.9997 168.756 33.9776ZM169.613 20.3197C169.221 20.155 168.801 20.0794 168.38 20.0981L168.352 20.097C167.9 20.0797 167.45 20.1702 167.036 20.3616C166.621 20.553 166.253 20.8401 165.958 21.2014L165.957 21.2013L165.954 21.2065C165.307 22.0676 164.914 23.1129 164.824 24.2101L164.81 24.3794H164.98H171.473H171.629V24.2229V23.9555H171.629L171.629 23.9462C171.555 22.7101 171.248 21.7505 170.686 21.0896L170.686 21.0896L170.684 21.0864C170.383 20.752 170.018 20.4902 169.613 20.3197Z" fill="#CED7D3" stroke="#CED7D3" stroke-width="0.312966"/>
<path d="M184.042 20.6804C183.241 20.6804 182.558 20.846 182.002 21.1867C181.445 21.5283 181.026 22.039 180.743 22.7093L180.731 22.7385V22.7701V33.6943H177.636V17.7906H180.584L180.662 19.4522L180.686 19.9789L180.953 19.5241C181.754 18.1581 182.847 17.4909 184.241 17.4909V17.491L184.247 17.4908C184.601 17.478 184.955 17.5326 185.291 17.652L185.275 20.7719C184.866 20.7095 184.454 20.6789 184.042 20.6804ZM184.042 20.6804C184.042 20.6804 184.042 20.6804 184.042 20.6804V20.8368L184.041 20.6804C184.041 20.6804 184.041 20.6804 184.042 20.6804Z" fill="#CED7D3" stroke="#CED7D3" stroke-width="0.312966"/>
<path d="M196.08 22.3557C196.066 22.0587 196 21.7663 195.886 21.4935C195.752 21.1722 195.552 20.8855 195.301 20.654L195.301 20.654L195.3 20.6525C194.732 20.1436 194.005 19.8799 193.261 19.9163C192.58 19.8776 191.906 20.0734 191.338 20.4736L191.338 20.4735L191.335 20.4756C191.09 20.6564 190.892 20.8987 190.758 21.1799C190.625 21.4601 190.559 21.7706 190.565 22.0839C190.56 22.3656 190.624 22.6443 190.751 22.8927C190.878 23.1414 191.064 23.3517 191.292 23.5019C191.761 23.8301 192.677 24.1474 194.009 24.4624L194.009 24.4624L194.014 24.4634C195.091 24.6836 196.137 25.0555 197.123 25.5697C197.78 25.9223 198.342 26.4491 198.756 27.101C199.125 27.7383 199.311 28.4784 199.289 29.2288L199.289 29.2288L199.289 29.2361C199.3 29.9062 199.157 30.5686 198.872 31.1646C198.586 31.7606 198.168 32.2712 197.656 32.6521L197.656 32.652L197.651 32.6556C196.557 33.5323 195.113 33.9777 193.306 33.9777L193.303 33.9777C192.185 33.9976 191.076 33.7577 190.052 33.2742L190.052 33.2741C189.17 32.8587 188.409 32.1944 187.852 31.351L187.852 31.3502C187.368 30.6284 187.095 29.7703 187.066 28.884H190.076C190.098 29.234 190.184 29.5768 190.328 29.8936C190.494 30.257 190.734 30.5775 191.031 30.8313L191.031 30.8315L191.038 30.837C191.715 31.3505 192.535 31.6075 193.367 31.5648C194.281 31.5642 195.003 31.379 195.507 30.9852C195.744 30.8103 195.935 30.5762 196.064 30.3047C196.194 30.0339 196.258 29.7338 196.251 29.4311C196.263 29.1101 196.193 28.7914 196.049 28.5079C195.905 28.2237 195.691 27.9847 195.429 27.8171C194.907 27.4632 194.053 27.1578 192.888 26.893L192.888 26.893L192.883 26.8921C191.896 26.6978 190.935 26.3778 190.019 25.9389C189.186 25.5079 188.571 24.9859 188.164 24.3769C187.757 23.7686 187.552 23.0651 187.552 22.2608L187.552 22.2601C187.549 21.6008 187.692 20.9505 187.969 20.3625C188.247 19.7746 188.65 19.2662 189.146 18.8785L189.146 18.8786L189.151 18.8746C190.222 17.9662 191.593 17.5058 193.276 17.5037C195.058 17.5037 196.485 17.9746 197.572 18.9032L197.572 18.9032L197.574 18.9054C198.09 19.3261 198.506 19.8716 198.787 20.498C199.048 21.0783 199.186 21.7125 199.193 22.3557H196.08Z" fill="#CED7D3" stroke="#CED7D3" stroke-width="0.312966"/>
</svg>
