<svg width="31" height="31" viewBox="0 0 31 31" fill="none" xmlns="http://www.w3.org/2000/svg">
<path d="M15.9664 28.625C18.5623 28.625 21.0999 27.8552 23.2583 26.413C25.4167 24.9708 27.0989 22.921 28.0923 20.5227C29.0857 18.1244 29.3457 15.4854 28.8392 12.9394C28.3328 10.3934 27.0828 8.05479 25.2472 6.21922C23.4116 4.38366 21.073 3.13362 18.527 2.62719C15.981 2.12076 13.342 2.38068 10.9437 3.37408C8.54543 4.36748 6.49558 6.04975 5.05339 8.20814C3.6112 10.3665 2.84143 12.9041 2.84143 15.5C2.84143 18.981 4.22424 22.3194 6.68565 24.7808C9.14707 27.2422 12.4855 28.625 15.9664 28.625ZM15.0289 23L15.0289 11.6094L9.77237 16.8406L8.46643 15.5L15.9664 8L23.4664 15.5L22.1286 16.8406L16.9039 11.6094L16.9039 23L15.0289 23Z" fill="white"/>
</svg>
